
<svg width="21" height="21" viewBox="0 0 21 21" fill="none" xmlns="http://www.w3.org/2000/svg">
<g clip-path="url(#clip0_495_2054)">
<path d="M16.0685 4.05655C17.5143 5.50216 18.3412 7.4534 18.3744 9.49766C18.4075 11.5419 17.6443 13.5189 16.2462 15.0107L16.0685 15.1944L12.3559 18.9062C11.8848 19.377 11.2524 19.6511 10.5868 19.673C9.92118 19.6949 9.27209 19.463 8.77105 19.0243L8.64505 18.9062L4.93155 15.1935C3.45469 13.7167 2.625 11.7136 2.625 9.62505C2.625 7.53646 3.45469 5.53341 4.93155 4.05655C6.40841 2.57969 8.41146 1.75 10.5 1.75C12.5886 1.75 14.5917 2.57969 16.0685 4.05655ZM10.5 7.00005C10.1553 7.00005 9.81398 7.06795 9.4955 7.19986C9.17702 7.33178 8.88765 7.52514 8.64389 7.76889C8.40014 8.01265 8.20678 8.30202 8.07486 8.6205C7.94295 8.93898 7.87505 9.28033 7.87505 9.62505C7.87505 9.96977 7.94295 10.3111 8.07486 10.6296C8.20678 10.9481 8.40014 11.2375 8.64389 11.4812C8.88765 11.725 9.17702 11.9183 9.4955 12.0502C9.81398 12.1822 10.1553 12.25 10.5 12.25C11.1962 12.25 11.8639 11.9735 12.3562 11.4812C12.8485 10.9889 13.125 10.3212 13.125 9.62505C13.125 8.92885 12.8485 8.26118 12.3562 7.76889C11.8639 7.27661 11.1962 7.00005 10.5 7.00005Z" fill="black" fill-opacity="0.3"/>
</g>
<defs>
<clipPath id="clip0_495_2054">
<rect width="21" height="21" fill="white"/>
</clipPath>
</defs>
</svg>
