<svg width="21" height="21" viewBox="0 0 21 21" fill="none" xmlns="http://www.w3.org/2000/svg">
<g clip-path="url(#clip0_495_2058)">
<path d="M10.5001 1.75L11.0619 1.75438L11.6009 1.76925L11.8625 1.78063L12.3691 1.81038L12.853 1.85063C16.9541 2.24875 18.6717 3.892 19.1232 7.89337L19.1495 8.14712L19.1897 8.631L19.2256 9.26712L19.2309 9.39838L19.2457 9.93825L19.2501 10.5L19.2457 11.0618L19.2309 11.6007L19.2195 11.8624L19.1897 12.369L19.1495 12.8529C18.7514 16.954 17.1081 18.6716 13.1067 19.1231L12.853 19.1494L12.3691 19.1896L11.733 19.2255L11.6017 19.2308L11.0619 19.2456L10.5001 19.25L9.93835 19.2456L9.39935 19.2308L9.13773 19.2194L8.6311 19.1896L8.14723 19.1494C4.0461 18.7512 2.32848 17.108 1.87698 13.1066L1.85073 12.8529L1.81048 12.369L1.7746 11.7329L1.76935 11.6016L1.75448 11.0618L1.75098 10.7835V10.2165L1.75448 9.93825L1.76935 9.39925L1.78073 9.13762L1.81048 8.631L1.85073 8.14712C2.24885 4.046 3.8921 2.32837 7.89348 1.87687L8.14723 1.85063L8.6311 1.81038L9.26723 1.7745L9.39848 1.76925L9.93835 1.75438C10.1221 1.75175 10.3094 1.75 10.5001 1.75ZM10.5089 13.125L10.3977 13.1311C10.1851 13.1564 9.98905 13.2588 9.84684 13.419C9.70462 13.5791 9.62608 13.7858 9.62608 14C9.62608 14.2142 9.70462 14.4209 9.84684 14.581C9.98905 14.7412 10.1851 14.8436 10.3977 14.8689L10.5001 14.875L10.6112 14.8689C10.8239 14.8436 11.0199 14.7412 11.1621 14.581C11.3043 14.4209 11.3829 14.2142 11.3829 14C11.3829 13.7858 11.3043 13.5791 11.1621 13.419C11.0199 13.2588 10.8239 13.1564 10.6112 13.1311L10.5089 13.125ZM10.5001 6.125C10.2858 6.12503 10.0789 6.20371 9.91878 6.34613C9.75862 6.48854 9.6563 6.68478 9.63123 6.89762L9.6251 7V10.5L9.63123 10.6024C9.65652 10.815 9.75894 11.011 9.91907 11.1533C10.0792 11.2955 10.2859 11.374 10.5001 11.374C10.7143 11.374 10.921 11.2955 11.0811 11.1533C11.2413 11.011 11.3437 10.815 11.369 10.6024L11.3751 10.5V7L11.369 6.89762C11.3439 6.68478 11.2416 6.48854 11.0814 6.34613C10.9213 6.20371 10.7144 6.12503 10.5001 6.125Z" fill="black" fill-opacity="0.3"/>
</g>
<defs>
<clipPath id="clip0_495_2058">
<rect width="21" height="21" fill="white"/>
</clipPath>
</defs>
</svg>
