<svg width="21" height="21" viewBox="0 0 21 21" fill="none" xmlns="http://www.w3.org/2000/svg">
<g clip-path="url(#clip0_495_2074)">
<path d="M19.25 6.59375V14.8756C19.25 15.5452 18.9942 16.1895 18.5349 16.6766C18.0755 17.1638 17.4474 17.457 16.779 17.4963L16.625 17.5006H4.375C3.70544 17.5007 3.06117 17.2448 2.57402 16.7855C2.08687 16.3262 1.79366 15.698 1.75438 15.0296L1.75 14.8756V6.59375L10.0144 12.1036L10.1159 12.1614C10.2355 12.2198 10.3669 12.2502 10.5 12.2502C10.6331 12.2502 10.7645 12.2198 10.8841 12.1614L10.9856 12.1036L19.25 6.59375Z" fill="black" fill-opacity="0.3"/>
<path d="M16.6253 3.5C17.5703 3.5 18.3989 3.99875 18.8609 4.74863L10.5003 10.3224L2.13965 4.74863C2.35904 4.3923 2.66046 4.0936 3.01877 3.87746C3.37708 3.66132 3.78188 3.534 4.1994 3.50612L4.37527 3.5H16.6253Z" fill="black" fill-opacity="0.3"/>
</g>
<defs>
<clipPath id="clip0_495_2074">
<rect width="21" height="21" fill="white"/>
</clipPath>
</defs>
</svg>
