<svg width="40" height="40" viewBox="0 0 40 40" fill="none" xmlns="http://www.w3.org/2000/svg">
<rect width="40" height="40" fill="#CCCCCC"/>
<g clip-path="url(#clip0_0_1)">
<rect width="390" height="847" transform="translate(-30 -279)" fill="#F8F2EA"/>
<rect x="-14" y="-14" width="358" height="319" rx="12" fill="white"/>
<rect width="40" height="40" rx="8" fill="#F7F1E9"/>
<g clip-path="url(#clip1_0_1)">
<path d="M24 10C24.2449 10 24.4813 10.09 24.6644 10.2527C24.8474 10.4155 24.9643 10.6397 24.993 10.883L25 11V12H26C26.7652 12 27.5015 12.2923 28.0583 12.8173C28.615 13.3422 28.9501 14.0601 28.995 14.824L29 15V27C29 27.7652 28.7077 28.5015 28.1827 29.0583C27.6578 29.615 26.9399 29.9501 26.176 29.995L26 30H14C13.2348 30 12.4985 29.7077 11.9417 29.1827C11.385 28.6578 11.0499 27.9399 11.005 27.176L11 27V15C11 14.2348 11.2923 13.4985 11.8173 12.9417C12.3422 12.385 13.0601 12.0499 13.824 12.005L14 12H15V11C15.0003 10.7451 15.0979 10.5 15.2728 10.3146C15.4478 10.1293 15.687 10.0178 15.9414 10.0028C16.1958 9.98789 16.4464 10.0707 16.6418 10.2343C16.8373 10.3979 16.9629 10.6299 16.993 10.883L17 11V12H23V11C23 10.7348 23.1054 10.4804 23.2929 10.2929C23.4804 10.1054 23.7348 10 24 10ZM27 17H13V26.625C13 27.33 13.386 27.911 13.883 27.991L14 28H26C26.513 28 26.936 27.47 26.993 26.785L27 26.625V17Z" fill="#9C4613"/>
<path d="M16.0005 22H18.0005V24H16.0005V22Z" fill="#9C4613"/>
</g>
</g>
<defs>
<clipPath id="clip0_0_1">
<rect width="390" height="847" fill="white" transform="translate(-30 -279)"/>
</clipPath>
<clipPath id="clip1_0_1">
<rect width="24" height="24" fill="white" transform="translate(8 8)"/>
</clipPath>
</defs>
</svg>
