<svg width="23" height="23" viewBox="0 0 23 23" fill="none" xmlns="http://www.w3.org/2000/svg">
<path d="M18.4069 6.12811C18.6299 6.12446 18.8459 6.2061 19.0107 6.35635C19.1755 6.50659 19.2767 6.7141 19.2937 6.93648C19.3106 7.15885 19.242 7.37931 19.1019 7.5528C18.9618 7.72629 18.7607 7.83973 18.5397 7.86993L18.4375 7.87784L18.3666 7.87908L17.7306 17.5166C17.7423 18.1861 17.4978 18.8347 17.047 19.3298C16.5962 19.8249 15.9733 20.1291 15.3057 20.18L15.1518 20.1871L8.15285 20.3092C6.75482 20.3336 5.59317 19.2609 5.49326 17.949L5.48633 17.803L4.50958 8.12095L4.4396 8.12217C4.21661 8.12582 4.00064 8.04418 3.83582 7.89394C3.67101 7.74369 3.56978 7.53618 3.55283 7.31381C3.53587 7.09143 3.60447 6.87098 3.74461 6.69748C3.88474 6.52399 4.08584 6.41055 4.3068 6.38035L4.40905 6.37244L18.4069 6.12811Z" fill="#FF3B30" fill-opacity="0.3"/>
<path d="M13.0969 2.72087C13.5609 2.71277 14.0092 2.88935 14.3431 3.21176C14.6769 3.53417 14.869 3.97601 14.8771 4.44007C14.8808 4.66306 14.7991 4.87902 14.6489 5.04384C14.4986 5.20866 14.2911 5.30988 14.0688 5.32684C13.8464 5.34379 13.6259 5.27519 13.4524 5.13505C13.2789 4.99492 13.1655 4.79383 13.1353 4.57286L13.1274 4.47061L9.62793 4.53169L9.62359 4.63416C9.60112 4.85604 9.49477 5.06097 9.32628 5.20708C9.15778 5.35318 8.93985 5.42943 8.71702 5.42025C8.49419 5.41107 8.28327 5.31715 8.12737 5.15767C7.97146 4.9982 7.88234 4.78521 7.8782 4.56223C7.87035 4.1208 8.02965 3.69271 8.32416 3.36379C8.61867 3.03486 9.02662 2.82941 9.46624 2.78862L9.59739 2.78196L13.0969 2.72087Z" fill="#FF3B30" fill-opacity="0.3"/>
</svg>
