<svg width="16" height="16" viewBox="0 0 16 16" fill="none" xmlns="http://www.w3.org/2000/svg">
<g opacity="0.7" clip-path="url(#clip0_419_376)">
<path d="M4 6V6.66667C4 7.1971 4.21071 7.70581 4.58579 8.08088C4.96086 8.45595 5.46957 8.66667 6 8.66667H6.66667" stroke="black" stroke-width="1.5" stroke-linecap="round" stroke-linejoin="round"/>
<path d="M11.9999 5.3335V8.66683C11.9999 9.19726 11.7892 9.70597 11.4141 10.081C11.0391 10.4561 10.5304 10.6668 9.99992 10.6668H9.33325" stroke="black" stroke-width="1.5" stroke-linecap="round" stroke-linejoin="round"/>
<path d="M6.66675 14V3.33333C6.66675 2.97971 6.80722 2.64057 7.05727 2.39052C7.30732 2.14048 7.64646 2 8.00008 2C8.3537 2 8.69284 2.14048 8.94289 2.39052C9.19294 2.64057 9.33341 2.97971 9.33341 3.33333V14" stroke="black" stroke-width="1.5" stroke-linecap="round" stroke-linejoin="round"/>
<path d="M4.66675 14H11.3334" stroke="black" stroke-width="1.5" stroke-linecap="round" stroke-linejoin="round"/>
</g>
<defs>
<clipPath id="clip0_419_376">
<rect width="16" height="16" fill="white"/>
</clipPath>
</defs>
</svg>
