<svg width="21" height="21" viewBox="0 0 21 21" fill="none" xmlns="http://www.w3.org/2000/svg">
<g clip-path="url(#clip0_495_2070)">
<path d="M9.12188 1.23724C9.52511 1.01488 9.9753 0.891249 10.4355 0.876496C10.8958 0.861743 11.353 0.956282 11.7696 1.15236L11.9359 1.23724L17.864 4.73286L17.948 4.78799L18.0285 4.85536L18.1221 4.92099C18.4262 5.14902 18.6811 5.43615 18.8715 5.76514C19.0618 6.09413 19.1837 6.4582 19.2299 6.83549L19.2456 7.01224L19.25 7.19074V13.5642C19.25 14.532 18.7512 15.4271 17.9777 15.9206L17.829 16.0081L11.8764 19.7724C11.0731 20.2134 10.1097 20.2405 9.24788 19.8319L9.07638 19.7444L3.21825 16.037C2.8013 15.809 2.44866 15.4794 2.19306 15.0788C1.93746 14.6782 1.78717 14.2196 1.75612 13.7454L1.75 13.5642V7.18986C1.75 6.22211 2.24875 5.32786 3.0415 4.82299L9.12188 1.23724ZM10.5 13.125C10.2857 13.125 10.0788 13.2037 9.91867 13.3461C9.75852 13.4885 9.6562 13.6848 9.63112 13.8976L9.625 14L9.63112 14.1111C9.65642 14.3238 9.75884 14.5198 9.91897 14.662C10.0791 14.8042 10.2858 14.8828 10.5 14.8828C10.7142 14.8828 10.9209 14.8042 11.081 14.662C11.2412 14.5198 11.3436 14.3238 11.3689 14.1111L11.375 14.0087L11.3689 13.8976C11.3438 13.6848 11.2415 13.4885 11.0813 13.3461C10.9212 13.2037 10.7143 13.125 10.5 13.125ZM11.697 7.28611C11.1732 7.01833 10.5743 6.93554 9.99748 7.05118C9.42069 7.16683 8.89995 7.47411 8.51988 7.92311C8.37496 8.09286 8.30039 8.31158 8.31143 8.5345C8.32247 8.75743 8.41828 8.9677 8.57926 9.12231C8.74024 9.27691 8.95421 9.36416 9.1774 9.36619C9.40058 9.36822 9.61611 9.28489 9.77987 9.13324L9.9295 8.97574C10.0586 8.85725 10.2209 8.78115 10.3945 8.75768C10.5682 8.73421 10.7448 8.76451 10.9008 8.84449C11.0688 8.92955 11.205 9.06658 11.2889 9.23521C11.3729 9.40383 11.4002 9.59505 11.3668 9.78044C11.3333 9.96582 11.241 10.1355 11.1034 10.2642C10.9659 10.3929 10.7904 10.4737 10.6033 10.4947L10.4002 10.5052C10.1777 10.5297 9.973 10.6386 9.82829 10.8094C9.68358 10.9803 9.60986 11.2001 9.6223 11.4236C9.63474 11.6472 9.73241 11.8574 9.89519 12.0112C10.058 12.1649 10.2735 12.2504 10.4974 12.25C11.0877 12.2518 11.6613 12.0545 12.1257 11.6901C12.5901 11.3257 12.9181 10.8154 13.0568 10.2416C13.1955 9.66785 13.1367 9.06408 12.89 8.52782C12.6432 7.99155 12.223 7.5541 11.697 7.28611Z" fill="black" fill-opacity="0.3"/>
</g>
<defs>
<clipPath id="clip0_495_2070">
<rect width="21" height="21" fill="white"/>
</clipPath>
</defs>
</svg>
