<svg width="21" height="21" viewBox="0 0 21 21" fill="none" xmlns="http://www.w3.org/2000/svg">
<g clip-path="url(#clip0_495_2083)">
<path d="M11.9578 1.2507L17.864 4.7332L17.948 4.78833L18.0294 4.85658L18.1221 4.92133C18.4503 5.16716 18.7208 5.48165 18.9149 5.84285C19.1089 6.20405 19.2218 6.60325 19.2456 7.01258L19.25 7.19108V13.5646C19.25 14.5927 18.6874 15.5386 17.8299 16.0085L11.8764 19.7727C11.0189 20.2435 9.98112 20.2435 9.07638 19.7447L3.21825 16.0373C2.77463 15.7943 2.40436 15.4366 2.1461 15.0017C1.88784 14.5667 1.75105 14.0704 1.75 13.5646V7.1902C1.75 6.22245 2.24875 5.3282 3.0415 4.82333L9.12275 1.23758C9.99775 0.754579 11.06 0.754579 11.9578 1.2507ZM13.125 9.62533H7.875C7.64294 9.62533 7.42038 9.71752 7.25628 9.88161C7.09219 10.0457 7 10.2683 7 10.5003C7 10.7324 7.09219 10.955 7.25628 11.119C7.42038 11.2831 7.64294 11.3753 7.875 11.3753H13.125C13.3571 11.3753 13.5796 11.2831 13.7437 11.119C13.9078 10.955 14 10.7324 14 10.5003C14 10.2683 13.9078 10.0457 13.7437 9.88161C13.5796 9.71752 13.3571 9.62533 13.125 9.62533Z" fill="#FF3B30" fill-opacity="0.3"/>
</g>
<defs>
<clipPath id="clip0_495_2083">
<rect width="21" height="21" fill="white"/>
</clipPath>
</defs>
</svg>
