<svg width="24" height="24" viewBox="0 0 24 24" fill="none" xmlns="http://www.w3.org/2000/svg">
<g opacity="0.3" clip-path="url(#clip0_49_663)">
<path d="M19.3641 4.63587C19.739 5.01092 19.9497 5.51954 19.9497 6.04987C19.9497 6.58019 19.739 7.08881 19.3641 7.46387C19.7924 8.66 19.887 9.95014 19.638 11.196C19.3889 12.4418 18.8054 13.5964 17.9501 14.5359L15.8281 16.6559C15.4417 17.1488 15.1763 17.7255 15.0535 18.3397C14.9307 18.9538 14.9539 19.5883 15.1211 20.1919L3.80811 8.87987C4.41155 9.04692 5.04579 9.06998 5.65977 8.94718C6.27375 8.82438 6.85033 8.55916 7.34311 8.17287L9.46411 6.04987C10.4036 5.19458 11.5582 4.61111 12.804 4.36202C14.0498 4.11292 15.34 4.20759 16.5361 4.63587C16.9112 4.26092 17.4198 4.05029 17.9501 4.05029C18.4804 4.05029 18.989 4.26092 19.3641 4.63587Z" stroke="#333333" stroke-width="2" stroke-linecap="round" stroke-linejoin="round"/>
<path d="M7.34308 12.4141L6.63608 13.1211C6.07342 13.6837 5.75732 14.4468 5.75732 15.2426C5.75732 16.0383 6.07342 16.8014 6.63608 17.3641C7.19874 17.9267 7.96186 18.2428 8.75758 18.2428C9.55329 18.2428 10.3164 17.9267 10.8791 17.3641L11.5861 16.6571" stroke="#333333" stroke-width="2" stroke-linecap="round" stroke-linejoin="round"/>
</g>
<defs>
<clipPath id="clip0_49_663">
<rect width="24" height="24" fill="white"/>
</clipPath>
</defs>
</svg>
