<svg width="16" height="16" viewBox="0 0 16 16" fill="none" xmlns="http://www.w3.org/2000/svg">
<g opacity="0.7" clip-path="url(#clip0_418_340)">
<path d="M6 7.3335C6 7.86393 6.21071 8.37264 6.58579 8.74771C6.96086 9.12278 7.46957 9.3335 8 9.3335C8.53043 9.3335 9.03914 9.12278 9.41421 8.74771C9.78929 8.37264 10 7.86393 10 7.3335C10 6.80306 9.78929 6.29436 9.41421 5.91928C9.03914 5.54421 8.53043 5.3335 8 5.3335C7.46957 5.3335 6.96086 5.54421 6.58579 5.91928C6.21071 6.29436 6 6.80306 6 7.3335Z" stroke="black" stroke-width="1.5" stroke-linecap="round" stroke-linejoin="round"/>
<path d="M11.7714 11.1045L8.94275 13.9331C8.69274 14.1829 8.35381 14.3232 8.00042 14.3232C7.64703 14.3232 7.30809 14.1829 7.05808 13.9331L4.22875 11.1045C3.4829 10.3586 2.97497 9.40827 2.76921 8.37371C2.56344 7.33916 2.66908 6.26681 3.07275 5.29229C3.47643 4.31777 4.16002 3.48483 5.03707 2.89881C5.91413 2.31279 6.94526 2 8.00008 2C9.05491 2 10.086 2.31279 10.9631 2.89881C11.8402 3.48483 12.5237 4.31777 12.9274 5.29229C13.3311 6.26681 13.4367 7.33916 13.231 8.37371C13.0252 9.40827 12.5173 10.3586 11.7714 11.1045Z" stroke="black" stroke-width="1.5" stroke-linecap="round" stroke-linejoin="round"/>
</g>
<defs>
<clipPath id="clip0_418_340">
<rect width="16" height="16" fill="white"/>
</clipPath>
</defs>
</svg>
