<svg width="21" height="21" viewBox="0 0 21 21" fill="none" xmlns="http://www.w3.org/2000/svg">
<g clip-path="url(#clip0_495_2066)">
<path d="M10.5 1.75C11.6603 1.75 12.7731 2.21094 13.5936 3.03141C14.4141 3.85188 14.875 4.96468 14.875 6.125V8.75C15.5712 8.75 16.2389 9.02656 16.7312 9.51884C17.2234 10.0111 17.5 10.6788 17.5 11.375V16.625C17.5 17.3212 17.2234 17.9889 16.7312 18.4812C16.2389 18.9734 15.5712 19.25 14.875 19.25H6.125C5.42881 19.25 4.76113 18.9734 4.26884 18.4812C3.77656 17.9889 3.5 17.3212 3.5 16.625V11.375C3.5 10.6788 3.77656 10.0111 4.26884 9.51884C4.76113 9.02656 5.42881 8.75 6.125 8.75V6.125C6.125 4.96468 6.58594 3.85188 7.40641 3.03141C8.22688 2.21094 9.33968 1.75 10.5 1.75ZM10.5 12.25C10.0585 12.2499 9.63325 12.4166 9.30952 12.7168C8.98579 13.017 8.78749 13.4285 8.75437 13.8688L8.75 14C8.75 14.3461 8.85264 14.6845 9.04493 14.9722C9.23722 15.26 9.51053 15.4843 9.8303 15.6168C10.1501 15.7492 10.5019 15.7839 10.8414 15.7164C11.1809 15.6489 11.4927 15.4822 11.7374 15.2374C11.9822 14.9927 12.1489 14.6809 12.2164 14.3414C12.2839 14.0019 12.2492 13.6501 12.1168 13.3303C11.9843 13.0105 11.76 12.7372 11.4722 12.5449C11.1845 12.3526 10.8461 12.25 10.5 12.25ZM10.5 3.5C9.80381 3.5 9.13613 3.77656 8.64384 4.26884C8.15156 4.76113 7.875 5.42881 7.875 6.125V8.75H13.125V6.125C13.125 5.42881 12.8484 4.76113 12.3562 4.26884C11.8639 3.77656 11.1962 3.5 10.5 3.5Z" fill="black" fill-opacity="0.3"/>
</g>
<defs>
<clipPath id="clip0_495_2066">
<rect width="21" height="21" fill="white"/>
</clipPath>
</defs>
</svg>
