<svg width="16" height="16" viewBox="0 0 16 16" fill="none" xmlns="http://www.w3.org/2000/svg">
<g opacity="0.7" clip-path="url(#clip0_418_332)">
<path d="M2 14H14" stroke="black" stroke-width="1.5" stroke-linecap="round" stroke-linejoin="round"/>
<path d="M2.66675 14V6.66667L4.33341 3.66667L8.00008 2L11.6667 3.66667L13.3334 6.66667V14" stroke="black" stroke-width="1.5" stroke-linecap="round" stroke-linejoin="round"/>
<path d="M6.66675 5.99984C6.66675 6.35346 6.80722 6.6926 7.05727 6.94265C7.30732 7.19269 7.64646 7.33317 8.00008 7.33317C8.3537 7.33317 8.69284 7.19269 8.94289 6.94265C9.19294 6.6926 9.33341 6.35346 9.33341 5.99984C9.33341 5.64622 9.19294 5.30708 8.94289 5.05703C8.69284 4.80698 8.3537 4.6665 8.00008 4.6665C7.64646 4.6665 7.30732 4.80698 7.05727 5.05703C6.80722 5.30708 6.66675 5.64622 6.66675 5.99984Z" stroke="black" stroke-width="1.5" stroke-linecap="round" stroke-linejoin="round"/>
<path d="M6 14V10.6667C6 10.4899 6.07024 10.3203 6.19526 10.1953C6.32029 10.0702 6.48986 10 6.66667 10H9.33333C9.51014 10 9.67971 10.0702 9.80474 10.1953C9.92976 10.3203 10 10.4899 10 10.6667V14" stroke="black" stroke-width="1.5" stroke-linecap="round" stroke-linejoin="round"/>
</g>
<defs>
<clipPath id="clip0_418_332">
<rect width="16" height="16" fill="white"/>
</clipPath>
</defs>
</svg>
