<svg width="18" height="18" viewBox="0 0 18 18" fill="none" xmlns="http://www.w3.org/2000/svg">
<path fill-rule="evenodd" clip-rule="evenodd" d="M8.67637 0.666504C4.25278 0.666504 0.666748 4.17333 0.666748 8.49922C0.666748 12.8251 4.25278 16.3319 8.67637 16.3319C10.5683 16.3319 12.3071 15.6905 13.6776 14.6178L16.281 17.157L16.3502 17.2154C16.5919 17.3903 16.9346 17.3704 17.1533 17.1559C17.3939 16.9201 17.3934 16.5381 17.1522 16.3028L14.5794 13.7934C15.8875 12.3993 16.686 10.5405 16.686 8.49922C16.686 4.17333 13.1 0.666504 8.67637 0.666504ZM8.67636 1.87295C12.4186 1.87295 15.4523 4.83963 15.4523 8.49922C15.4523 12.1588 12.4186 15.1255 8.67636 15.1255C4.93412 15.1255 1.90044 12.1588 1.90044 8.49922C1.90044 4.83963 4.93412 1.87295 8.67636 1.87295Z" fill="#333333"/>
</svg>
