<svg width="21" height="21" viewBox="0 0 21 21" fill="none" xmlns="http://www.w3.org/2000/svg">
<g clip-path="url(#clip0_495_2062)">
<path d="M15.7474 3.64875C16.2599 3.82934 16.7037 4.16452 17.0176 4.60805C17.3316 5.05159 17.5001 5.58161 17.5 6.125V16.625C17.5 17.3212 17.2234 17.9889 16.7312 18.4812C16.2389 18.9734 15.5712 19.25 14.875 19.25H6.125C5.42881 19.25 4.76113 18.9734 4.26884 18.4812C3.77656 17.9889 3.5 17.3212 3.5 16.625V6.125C3.49991 5.58161 3.66845 5.05159 3.98237 4.60805C4.29629 4.16452 4.74012 3.82934 5.25262 3.64875C5.29099 4.55053 5.67624 5.40263 6.32794 6.0271C6.97965 6.65158 7.8474 7.00014 8.75 7H12.25C13.1173 7.00008 13.9537 6.67816 14.5971 6.09666C15.2405 5.51515 15.6451 4.71547 15.7325 3.85262L15.7474 3.64875ZM13.125 13.125H7.875C7.64294 13.125 7.42038 13.2172 7.25628 13.3813C7.09219 13.5454 7 13.7679 7 14C7 14.2321 7.09219 14.4546 7.25628 14.6187C7.42038 14.7828 7.64294 14.875 7.875 14.875H13.125C13.3571 14.875 13.5796 14.7828 13.7437 14.6187C13.9078 14.4546 14 14.2321 14 14C14 13.7679 13.9078 13.5454 13.7437 13.3813C13.5796 13.2172 13.3571 13.125 13.125 13.125ZM13.125 9.625H7.875C7.64294 9.625 7.42038 9.71719 7.25628 9.88128C7.09219 10.0454 7 10.2679 7 10.5C7 10.7321 7.09219 10.9546 7.25628 11.1187C7.42038 11.2828 7.64294 11.375 7.875 11.375H13.125C13.3571 11.375 13.5796 11.2828 13.7437 11.1187C13.9078 10.9546 14 10.7321 14 10.5C14 10.2679 13.9078 10.0454 13.7437 9.88128C13.5796 9.71719 13.3571 9.625 13.125 9.625ZM12.25 1.75C12.7141 1.75 13.1592 1.93437 13.4874 2.26256C13.8156 2.59075 14 3.03587 14 3.5C14 3.96413 13.8156 4.40925 13.4874 4.73744C13.1592 5.06563 12.7141 5.25 12.25 5.25H8.75C8.28587 5.25 7.84075 5.06563 7.51256 4.73744C7.18437 4.40925 7 3.96413 7 3.5C7 3.03587 7.18437 2.59075 7.51256 2.26256C7.84075 1.93437 8.28587 1.75 8.75 1.75H12.25Z" fill="black" fill-opacity="0.3"/>
</g>
<defs>
<clipPath id="clip0_495_2062">
<rect width="21" height="21" fill="white"/>
</clipPath>
</defs>
</svg>
