<svg width="36" height="36" viewBox="0 0 36 36" fill="none" xmlns="http://www.w3.org/2000/svg">
<rect width="36" height="36" fill="#CCCCCC"/>
<g clip-path="url(#clip0_0_1)">
<rect width="390" height="847" transform="translate(-330 -274)" fill="#F8F2EA"/>
<g filter="url(#filter0_d_0_1)">
<path d="M-314 -60C-314 -69.9411 -305.941 -78 -296 -78H26C35.9411 -78 44 -69.9411 44 -60V-42C44 -32.0589 35.9411 -24 26 -24H-296C-305.941 -24 -314 -32.0589 -314 -42V-60Z" fill="white"/>
</g>
<rect x="-313" y="-7" width="356" height="118" rx="13" fill="white" stroke="white" stroke-width="2"/>
<rect width="36" height="36" rx="18" fill="#F8F2EA" fill-opacity="0.5"/>
<g clip-path="url(#clip1_0_1)">
<path d="M24.2501 18.4766L18.0001 24.6666L11.7501 18.4766C11.3378 18.0754 11.0131 17.5932 10.7964 17.0604C10.5796 16.5276 10.4756 15.9557 10.4907 15.3807C10.5058 14.8057 10.6399 14.24 10.8844 13.7194C11.1289 13.1987 11.4785 12.7343 11.9113 12.3554C12.3441 11.9765 12.8507 11.6913 13.3991 11.5178C13.9475 11.3443 14.5259 11.2862 15.0979 11.3472C15.6699 11.4083 16.223 11.587 16.7225 11.8723C17.222 12.1576 17.657 12.5432 18.0001 13.0049C18.3447 12.5466 18.7802 12.1643 19.2793 11.8821C19.7785 11.5998 20.3305 11.4236 20.9009 11.3645C21.4712 11.3054 22.0477 11.3647 22.5941 11.5386C23.1405 11.7125 23.6451 11.9973 24.0764 12.3752C24.5077 12.7531 24.8563 13.216 25.1004 13.7348C25.3446 14.2537 25.479 14.8173 25.4953 15.3905C25.5117 15.9637 25.4095 16.5341 25.1952 17.0659C24.9809 17.5978 24.6592 18.0798 24.2501 18.4816" stroke="#9C4613" stroke-opacity="0.1" stroke-width="2" stroke-linecap="round" stroke-linejoin="round"/>
</g>
</g>
<defs>
<filter id="filter0_d_0_1" x="-338" y="-94" width="406" height="102" filterUnits="userSpaceOnUse" color-interpolation-filters="sRGB">
<feFlood flood-opacity="0" result="BackgroundImageFix"/>
<feColorMatrix in="SourceAlpha" type="matrix" values="0 0 0 0 0 0 0 0 0 0 0 0 0 0 0 0 0 0 127 0" result="hardAlpha"/>
<feOffset dy="8"/>
<feGaussianBlur stdDeviation="12"/>
<feComposite in2="hardAlpha" operator="out"/>
<feColorMatrix type="matrix" values="0 0 0 0 0.611765 0 0 0 0 0.27451 0 0 0 0 0.0745098 0 0 0 0.1 0"/>
<feBlend mode="normal" in2="BackgroundImageFix" result="effect1_dropShadow_0_1"/>
<feBlend mode="normal" in="SourceGraphic" in2="effect1_dropShadow_0_1" result="shape"/>
</filter>
<clipPath id="clip0_0_1">
<rect width="390" height="847" fill="white" transform="translate(-330 -274)"/>
</clipPath>
<clipPath id="clip1_0_1">
<rect width="20" height="20" fill="white" transform="translate(8 8)"/>
</clipPath>
</defs>
</svg>
